<svg width="148" height="193" viewBox="0 0 148 193" fill="none" xmlns="http://www.w3.org/2000/svg">
<circle cx="73.6641" cy="119.266" r="73.6641" fill="white"/>
<line x1="7.22462" y1="153.003" x2="137.492" y2="153.43" stroke="#C4CAD7" stroke-width="2" stroke-linecap="round"/>
<path d="M36.1263 149.359V112.232H92.25V152.305H38.7489C37.3005 152.305 36.1263 150.986 36.1263 149.359Z" fill="#EA934E"/>
<path d="M92.2499 152.305V112.232H111.133V149.359C111.133 150.986 109.958 152.305 108.51 152.305H92.2499Z" fill="#CA6F50"/>
<g filter="url(#filter0_f_307_229)">
<path d="M96.9706 136.04L92.2499 113.41H111.133V136.393L96.9706 136.04Z" fill="url(#paint0_linear_307_229)"/>
</g>
<path d="M102.385 130.285L92.2499 112.232H111.133L120.637 130.498C120.842 130.891 120.589 131.385 120.184 131.385H104.16C103.439 131.385 102.769 130.97 102.385 130.285Z" fill="#EB944F"/>
<path fill-rule="evenodd" clip-rule="evenodd" d="M40.0602 138.161C40.0602 137.673 40.4124 137.277 40.847 137.277H64.4504C64.8849 137.277 65.2372 137.673 65.2372 138.161C65.2372 138.649 64.8849 139.045 64.4504 139.045H40.847C40.4124 139.045 40.0602 138.649 40.0602 138.161Z" fill="#8B4610"/>
<path fill-rule="evenodd" clip-rule="evenodd" d="M40.0602 142.287C40.0602 141.799 40.4124 141.403 40.847 141.403H64.4504C64.8849 141.403 65.2372 141.799 65.2372 142.287C65.2372 142.775 64.8849 143.171 64.4504 143.171H40.847C40.4124 143.171 40.0602 142.775 40.0602 142.287Z" fill="#8B4610"/>
<path fill-rule="evenodd" clip-rule="evenodd" d="M40.0602 146.411C40.0602 145.923 40.4124 145.527 40.847 145.527H53.96C54.3945 145.527 54.7467 145.923 54.7467 146.411C54.7467 146.899 54.3945 147.295 53.96 147.295H40.847C40.4124 147.295 40.0602 146.899 40.0602 146.411Z" fill="#8B4610"/>
<path d="M119.233 93.374H75.4656V112.232H111.133L120.549 96.1119C121.235 94.9363 120.485 93.374 119.233 93.374Z" fill="#C6671C"/>
<path d="M37.0802 80.6361L37.3299 80.6202L37.3287 80.6091L37.0802 80.6361ZM61.9987 50.0679L61.8949 50.2954L61.9987 50.0679ZM35.2532 62.3906L35.0257 62.4943L35.2532 62.3906ZM21.7455 44.1183C21.6293 44.0439 21.4746 44.0778 21.4002 44.194C21.3257 44.3103 21.3596 44.4649 21.4759 44.5394L21.7455 44.1183ZM44.4946 112.605C44.5527 112.731 44.7014 112.785 44.8266 112.727C44.9519 112.669 45.0062 112.52 44.9481 112.395L44.4946 112.605ZM22.2586 45.0662C22.3714 45.1458 22.5274 45.1189 22.607 45.0061C22.6866 44.8933 22.6597 44.7373 22.5469 44.6577L22.2586 45.0662ZM24.0761 45.8357C23.9702 45.7472 23.8125 45.7612 23.7239 45.8672C23.6354 45.9731 23.6494 46.1307 23.7553 46.2193L24.0761 45.8357ZM25.1618 47.4856C25.2611 47.5815 25.4193 47.5788 25.5153 47.4795C25.6112 47.3802 25.6084 47.2219 25.5091 47.126L25.1618 47.4856ZM26.8512 48.5079C26.7581 48.4059 26.6 48.3988 26.498 48.4919C26.3961 48.585 26.3889 48.7432 26.482 48.8451L26.8512 48.5079ZM27.7214 50.2808C27.8088 50.3877 27.9663 50.4036 28.0732 50.3162C28.1801 50.2288 28.1959 50.0713 28.1085 49.9644L27.7214 50.2808ZM29.2884 51.4827C29.2063 51.3717 29.0498 51.3483 28.9388 51.4304C28.8278 51.5125 28.8044 51.6691 28.8865 51.7801L29.2884 51.4827ZM29.9837 53.3326C30.061 53.447 30.2164 53.4771 30.3308 53.3998C30.4452 53.3225 30.4753 53.1671 30.398 53.0527L29.9837 53.3326ZM31.4416 54.6632C31.3687 54.546 31.2145 54.51 31.0973 54.583C30.98 54.6559 30.9441 54.81 31.017 54.9273L31.4416 54.6632ZM31.9936 56.5598C32.0625 56.6795 32.2153 56.7206 32.335 56.6517C32.4546 56.5828 32.4958 56.43 32.4269 56.3103L31.9936 56.5598ZM33.3588 57.9885C33.2935 57.8668 33.142 57.821 33.0203 57.8862C32.8986 57.9514 32.8528 58.1029 32.918 58.2246L33.3588 57.9885ZM33.7942 59.9161C33.856 60.0396 34.0062 60.0895 34.1297 60.0277C34.2531 59.9658 34.3031 59.8156 34.2412 59.6922L33.7942 59.9161ZM35.078 61.417C35.0193 61.292 34.8704 61.2383 34.7454 61.2971C34.6204 61.3558 34.5668 61.5047 34.6255 61.6297L35.078 61.417ZM35.4639 63.4283C35.524 63.5526 35.6734 63.6047 35.7978 63.5447C35.9221 63.4846 35.9742 63.3351 35.9142 63.2108L35.4639 63.4283ZM36.8084 64.9597C36.7426 64.8383 36.5909 64.7931 36.4695 64.8589C36.3481 64.9246 36.3029 65.0763 36.3687 65.1977L36.8084 64.9597ZM37.3739 66.945C37.4459 67.0628 37.5998 67.0999 37.7176 67.0279C37.8354 66.9559 37.8725 66.802 37.8004 66.6842L37.3739 66.945ZM38.8626 68.3157C38.7839 68.2023 38.6282 68.1741 38.5147 68.2528C38.4013 68.3315 38.3731 68.4873 38.4518 68.6008L38.8626 68.3157ZM39.6561 70.2216C39.7421 70.3296 39.8994 70.3474 40.0074 70.2614C40.1154 70.1753 40.1332 70.018 40.0471 69.9101L39.6561 70.2216ZM41.3316 71.4072C41.2378 71.3059 41.0797 71.2998 40.9784 71.3936C40.877 71.4874 40.8709 71.6456 40.9647 71.7469L41.3316 71.4072ZM42.3793 73.1557C42.4811 73.2489 42.6392 73.2419 42.7325 73.1401C42.8257 73.0383 42.8187 72.8801 42.7169 72.7869L42.3793 73.1557ZM44.2143 74.0381C44.1043 73.9546 43.9475 73.9761 43.864 74.0861C43.7805 74.1961 43.802 74.3529 43.912 74.4364L44.2143 74.0381ZM45.583 75.576C45.701 75.6477 45.8548 75.6102 45.9265 75.4922C45.9982 75.3742 45.9607 75.2204 45.8428 75.1487L45.583 75.576ZM47.5723 76.0736C47.447 76.0154 47.2984 76.0698 47.2402 76.1951C47.1821 76.3203 47.2365 76.469 47.3618 76.5271L47.5723 76.0736ZM49.237 77.2663C49.3683 77.3091 49.5094 77.2375 49.5522 77.1062C49.5951 76.9749 49.5234 76.8338 49.3921 76.791L49.237 77.2663ZM51.2836 77.2817C51.1481 77.2554 51.0169 77.3439 50.9906 77.4795C50.9643 77.615 51.0528 77.7462 51.1884 77.7725L51.2836 77.2817ZM53.1881 78.0315C53.3259 78.0406 53.445 77.9363 53.4541 77.7986C53.4632 77.6608 53.3589 77.5417 53.2211 77.5326L53.1881 78.0315ZM55.1755 77.5393C55.0376 77.5474 54.9325 77.6657 54.9406 77.8036C54.9487 77.9414 55.067 78.0466 55.2048 78.0385L55.1755 77.5393ZM57.2067 77.7976C57.3426 77.7729 57.4326 77.6427 57.4079 77.5069C57.3832 77.371 57.253 77.281 57.1172 77.3057L57.2067 77.7976ZM59.0188 76.8423C58.8868 76.8827 58.8125 77.0225 58.853 77.1545C58.8934 77.2865 59.0332 77.3608 59.1652 77.3203L59.0188 76.8423ZM61.0555 76.6221C61.1822 76.5671 61.2402 76.4198 61.1852 76.2932C61.1302 76.1665 60.9829 76.1085 60.8563 76.1635L61.0555 76.6221ZM62.6087 75.2854C62.4888 75.3538 62.447 75.5065 62.5155 75.6264C62.584 75.7463 62.7366 75.7881 62.8566 75.7196L62.6087 75.2854ZM64.5498 74.629C64.6617 74.5482 64.6869 74.3919 64.6061 74.28C64.5253 74.1681 64.369 74.1428 64.257 74.2237L64.5498 74.629ZM65.7834 72.993C65.6807 73.0853 65.6722 73.2433 65.7645 73.346C65.8567 73.4488 66.0148 73.4572 66.1175 73.365L65.7834 72.993ZM67.5411 71.9404C67.6333 71.8376 67.6246 71.6796 67.5218 71.5874C67.419 71.4953 67.2609 71.5039 67.1688 71.6068L67.5411 71.9404ZM68.392 70.0774C68.312 70.19 68.3385 70.346 68.451 70.426C68.5636 70.5059 68.7197 70.4795 68.7996 70.3669L68.392 70.0774ZM69.8684 68.6542C69.9342 68.5329 69.8891 68.3811 69.7677 68.3153C69.6464 68.2495 69.4946 68.2946 69.4288 68.416L69.8684 68.6542ZM70.2471 66.6403C70.1978 66.7693 70.2625 66.9138 70.3914 66.9631C70.5204 67.0123 70.6649 66.9477 70.7142 66.8187L70.2471 66.6403ZM71.299 64.8819C71.329 64.7471 71.2441 64.6136 71.1093 64.5835C70.9746 64.5535 70.841 64.6384 70.811 64.7732L71.299 64.8819ZM71.0825 62.8472C71.0745 62.9851 71.1797 63.1033 71.3175 63.1114C71.4553 63.1194 71.5736 63.0142 71.5817 62.8764L71.0825 62.8472ZM71.5252 60.8491C71.5092 60.712 71.3851 60.6138 71.2479 60.6297C71.1108 60.6457 71.0126 60.7698 71.0285 60.907L71.5252 60.8491ZM70.6307 59.0073C70.6711 59.1393 70.811 59.2135 70.943 59.173C71.075 59.1326 71.1492 58.9928 71.1087 58.8607L70.6307 59.0073ZM70.3413 56.9795C70.278 56.8568 70.1273 56.8085 70.0045 56.8718C69.8818 56.935 69.8336 57.0858 69.8968 57.2085L70.3413 56.9795ZM68.8659 55.5632C68.9484 55.6739 69.1051 55.6967 69.2158 55.6142C69.3264 55.5316 69.3493 55.375 69.2667 55.2643L68.8659 55.5632ZM67.9403 53.7372C67.8426 53.6397 67.6843 53.6398 67.5867 53.7375C67.4892 53.8352 67.4893 53.9935 67.587 54.0911L67.9403 53.7372ZM66.1117 52.7963C66.2208 52.8809 66.3778 52.861 66.4624 52.7519C66.547 52.6428 66.5272 52.4858 66.4181 52.4012L66.1117 52.7963ZM64.7754 51.2626C64.658 51.1898 64.5039 51.2259 64.4311 51.3432C64.3583 51.4605 64.3944 51.6146 64.5117 51.6874L64.7754 51.2626ZM62.8103 50.7348C62.9336 50.7971 63.0839 50.7477 63.1462 50.6245C63.2085 50.5012 63.1591 50.3508 63.0358 50.2886L62.8103 50.7348ZM61.1482 49.4283C61.0203 49.3762 60.8744 49.4376 60.8223 49.5655C60.7702 49.6934 60.8316 49.8393 60.9595 49.8914L61.1482 49.4283ZM59.0818 49.2227C59.2139 49.2628 59.3535 49.1881 59.3936 49.056C59.4336 48.9239 59.359 48.7843 59.2268 48.7442L59.0818 49.2227ZM57.2438 48.2578C57.108 48.2327 56.9776 48.3223 56.9524 48.4581C56.9272 48.5938 57.0168 48.7243 57.1526 48.7494L57.2438 48.2578ZM55.1901 48.5138C55.3279 48.521 55.4455 48.4151 55.4527 48.2772C55.4599 48.1393 55.354 48.0217 55.2161 48.0145L55.1901 48.5138ZM53.1579 48.0603C53.0206 48.0741 52.9203 48.1966 52.934 48.3339C52.9477 48.4713 53.0702 48.5716 53.2076 48.5579L53.1579 48.0603ZM51.2647 48.9136C51.3979 48.8776 51.4768 48.7403 51.4407 48.6071C51.4047 48.4738 51.2674 48.3949 51.1341 48.431L51.2647 48.9136ZM49.2013 49.1315C49.0758 49.1892 49.0208 49.3376 49.0785 49.4631C49.1361 49.5885 49.2846 49.6435 49.41 49.5859L49.2013 49.1315ZM47.6846 50.5519C47.7995 50.4753 47.8306 50.3201 47.7541 50.2052C47.6776 50.0903 47.5223 50.0592 47.4074 50.1357L47.6846 50.5519ZM45.7834 51.3937C45.6802 51.4855 45.671 51.6435 45.7628 51.7466C45.8546 51.8498 46.0126 51.859 46.1158 51.7672L45.7834 51.3937ZM44.7164 53.1755C44.8079 53.072 44.7982 52.9141 44.6948 52.8226C44.5913 52.7311 44.4333 52.7408 44.3419 52.8442L44.7164 53.1755ZM43.0684 54.4442C42.9879 54.5563 43.0134 54.7126 43.1255 54.7931C43.2377 54.8737 43.3939 54.8481 43.4745 54.736L43.0684 54.4442ZM42.3806 56.4084C42.4513 56.2898 42.4125 56.1364 42.2939 56.0656C42.1753 55.9949 42.0219 56.0337 41.9512 56.1523L42.3806 56.4084ZM40.9744 57.9385C40.9125 58.0619 40.9624 58.2121 41.0858 58.274C41.2092 58.3359 41.3595 58.2861 41.4214 58.1627L40.9744 57.9385ZM40.5809 59.9822C40.635 59.8551 40.5757 59.7083 40.4487 59.6543C40.3216 59.6003 40.1748 59.6595 40.1208 59.7866L40.5809 59.9822ZM39.3782 61.6809C39.3313 61.8107 39.3986 61.954 39.5284 62.0009C39.6583 62.0478 39.8016 61.9805 39.8485 61.8506L39.3782 61.6809ZM39.2151 63.7546C39.2554 63.6225 39.1811 63.4828 39.0491 63.4424C38.917 63.402 38.7773 63.4763 38.7369 63.6084L39.2151 63.7546ZM38.1879 65.5641C38.1536 65.6978 38.2342 65.834 38.3679 65.8684C38.5017 65.9027 38.6379 65.8221 38.6722 65.6884L38.1879 65.5641ZM38.2148 67.6445C38.2434 67.5095 38.1571 67.3768 38.022 67.3482C37.8869 67.3196 37.7542 67.4059 37.7256 67.541L38.2148 67.6445ZM37.3464 69.5335C37.3233 69.6696 37.415 69.7986 37.5511 69.8217C37.6873 69.8447 37.8163 69.7531 37.8394 69.6169L37.3464 69.5335ZM37.5435 71.6076C37.561 71.4707 37.4642 71.3454 37.3272 71.3279C37.1903 71.3104 37.0651 71.4072 37.0475 71.5441L37.5435 71.6076ZM36.8311 73.5631C36.8192 73.7006 36.9211 73.8218 37.0587 73.8336C37.1962 73.8455 37.3173 73.7436 37.3292 73.606L36.8311 73.5631ZM37.2004 75.6062C37.2062 75.4683 37.099 75.3518 36.9611 75.346C36.8231 75.3402 36.7066 75.4473 36.7008 75.5853L37.2004 75.6062ZM36.6652 77.6237C36.6663 77.7617 36.7792 77.8727 36.9173 77.8716C37.0553 77.8704 37.1663 77.7576 37.1652 77.6195L36.6652 77.6237ZM37.2407 79.6179C37.231 79.4802 37.1116 79.3763 36.9738 79.386C36.8361 79.3956 36.7322 79.5151 36.7419 79.6528L37.2407 79.6179ZM36.906 81.6776C36.9173 81.8152 37.0381 81.9176 37.1757 81.9062C37.3133 81.8949 37.4157 81.7742 37.4044 81.6366L36.906 81.6776ZM37.6007 83.6782C37.5858 83.5409 37.4624 83.4418 37.3251 83.4567C37.1879 83.4716 37.0887 83.595 37.1036 83.7322L37.6007 83.6782ZM37.3486 85.784C37.3664 85.9209 37.4918 86.0175 37.6287 85.9998C37.7656 85.982 37.8623 85.8566 37.8445 85.7197L37.3486 85.784ZM38.127 87.7511C38.1068 87.6145 37.9796 87.5202 37.8431 87.5405C37.7065 87.5607 37.6122 87.6879 37.6324 87.8244L38.127 87.7511ZM37.9528 89.8616C37.9754 89.9978 38.1041 90.0898 38.2403 90.0672C38.3765 90.0446 38.4686 89.9158 38.446 89.7796L37.9528 89.8616ZM38.7999 91.8028C38.7749 91.667 38.6446 91.5771 38.5088 91.6021C38.373 91.627 38.2831 91.7573 38.3081 91.8931L38.7999 91.8028ZM38.6983 93.9185C38.7256 94.0539 38.8574 94.1415 38.9928 94.1142C39.1281 94.0869 39.2157 93.955 39.1884 93.8197L38.6983 93.9185ZM39.6123 95.8297C39.5826 95.6948 39.4492 95.6096 39.3144 95.6393C39.1795 95.669 39.0943 95.8024 39.124 95.9372L39.6123 95.8297ZM39.5863 97.9478C39.6185 98.0821 39.7535 98.1648 39.8878 98.1326C40.022 98.1004 40.1048 97.9655 40.0725 97.8312L39.5863 97.9478ZM40.5705 99.8219C40.5357 99.6883 40.3992 99.6082 40.2656 99.6431C40.132 99.6779 40.0519 99.8144 40.0867 99.9481L40.5705 99.8219ZM40.628 101.939C40.6656 102.072 40.8038 102.149 40.9367 102.111C41.0695 102.074 41.1467 101.935 41.1091 101.803L40.628 101.939ZM41.6907 103.771C41.6501 103.639 41.5101 103.565 41.3782 103.606C41.2463 103.646 41.1722 103.786 41.2129 103.918L41.6907 103.771ZM41.8447 105.883C41.8886 106.014 42.0303 106.084 42.1612 106.04C42.2921 105.996 42.3627 105.855 42.3187 105.724L41.8447 105.883ZM42.9973 107.66C42.9498 107.53 42.8062 107.463 42.6766 107.511C42.5469 107.558 42.4803 107.702 42.5278 107.832L42.9973 107.66ZM43.2672 109.76C43.3186 109.888 43.4641 109.951 43.5923 109.899C43.7204 109.848 43.7826 109.702 43.7312 109.574L43.2672 109.76ZM44.5259 111.462C44.4701 111.336 44.3225 111.279 44.1962 111.335C44.0699 111.39 44.0127 111.538 44.0685 111.664L44.5259 111.462ZM21.4759 44.5394C21.7363 44.7062 21.9972 44.8817 22.2586 45.0662L22.5469 44.6577C22.2795 44.469 22.0124 44.2892 21.7455 44.1183L21.4759 44.5394ZM23.7553 46.2193C24.2236 46.6108 24.6925 47.0324 25.1618 47.4856L25.5091 47.126C25.0316 46.6648 24.5538 46.2352 24.0761 45.8357L23.7553 46.2193ZM26.482 48.8451C26.8955 49.2978 27.3087 49.776 27.7214 50.2808L28.1085 49.9644C27.6903 49.4527 27.271 48.9675 26.8512 48.5079L26.482 48.8451ZM28.8865 51.7801C29.2531 52.2755 29.6189 52.7928 29.9837 53.3326L30.398 53.0527C30.0293 52.5071 29.6594 51.984 29.2884 51.4827L28.8865 51.7801ZM31.017 54.9273C31.3436 55.4525 31.6692 55.9965 31.9936 56.5598L32.4269 56.3103C32.0997 55.7422 31.7713 55.1934 31.4416 54.6632L31.017 54.9273ZM32.918 58.2246C33.2113 58.7719 33.5034 59.3356 33.7942 59.9161L34.2412 59.6922C33.9485 59.1077 33.6542 58.5399 33.3588 57.9885L32.918 58.2246ZM34.6255 61.6297C34.7592 61.9141 34.8926 62.2023 35.0257 62.4943L35.4806 62.2869C35.3468 61.9932 35.2125 61.7032 35.078 61.417L34.6255 61.6297ZM35.0257 62.4943C35.1701 62.8111 35.3162 63.1224 35.4639 63.4283L35.9142 63.2108C35.7681 62.9084 35.6236 62.6004 35.4806 62.2869L35.0257 62.4943ZM36.3687 65.1977C36.6972 65.8044 37.0324 66.3866 37.3739 66.945L37.8004 66.6842C37.4637 66.1335 37.1328 65.5589 36.8084 64.9597L36.3687 65.1977ZM38.4518 68.6008C38.8465 69.1696 39.2482 69.7096 39.6561 70.2216L40.0471 69.9101C39.6463 69.407 39.2512 68.8758 38.8626 68.3157L38.4518 68.6008ZM40.9647 71.7469C41.4299 72.2494 41.9018 72.7186 42.3793 73.1557L42.7169 72.7869C42.2499 72.3593 41.7878 71.8999 41.3316 71.4072L40.9647 71.7469ZM43.912 74.4364C44.4638 74.8552 45.0214 75.2345 45.583 75.576L45.8428 75.1487C45.2961 74.8164 44.7527 74.4468 44.2143 74.0381L43.912 74.4364ZM47.3618 76.5271C47.9847 76.8162 48.6105 77.0618 49.237 77.2663L49.3921 76.791C48.7846 76.5927 48.1773 76.3543 47.5723 76.0736L47.3618 76.5271ZM51.1884 77.7725C51.8576 77.9024 52.525 77.9878 53.1881 78.0315L53.2211 77.5326C52.5787 77.4902 51.932 77.4075 51.2836 77.2817L51.1884 77.7725ZM55.2048 78.0385C55.8806 77.9988 56.5489 77.9174 57.2067 77.7976L57.1172 77.3057C56.4788 77.4219 55.8306 77.5008 55.1755 77.5393L55.2048 78.0385ZM59.1652 77.3203C59.81 77.1229 60.4411 76.889 61.0555 76.6221L60.8563 76.1635C60.2587 76.4231 59.6452 76.6504 59.0188 76.8423L59.1652 77.3203ZM62.8566 75.7196C63.442 75.3854 64.0074 75.0207 64.5498 74.629L64.257 74.2237C63.7289 74.6051 63.1785 74.9601 62.6087 75.2854L62.8566 75.7196ZM66.1175 73.365C66.6202 72.9135 67.0958 72.4374 67.5411 71.9404L67.1688 71.6068C66.7356 72.0902 66.2727 72.5535 65.7834 72.993L66.1175 73.365ZM68.7996 70.3669C69.1929 69.8133 69.5503 69.2411 69.8684 68.6542L69.4288 68.416C69.1206 68.9846 68.7739 69.5397 68.392 70.0774L68.7996 70.3669ZM70.7142 66.8187C70.9569 66.1831 71.1533 65.536 71.299 64.8819L70.811 64.7732C70.6708 65.4026 70.4816 66.0264 70.2471 66.6403L70.7142 66.8187ZM71.5817 62.8764C71.6211 62.2014 71.6037 61.524 71.5252 60.8491L71.0285 60.907C71.1036 61.552 71.1203 62.2002 71.0825 62.8472L71.5817 62.8764ZM71.1087 58.8607C70.9139 58.2249 70.6592 57.5964 70.3413 56.9795L69.8968 57.2085C70.2012 57.7991 70.4445 58.4 70.6307 59.0073L71.1087 58.8607ZM69.2667 55.2643C68.8772 54.7418 68.4358 54.2318 67.9403 53.7372L67.587 54.0911C68.066 54.5692 68.4913 55.0608 68.8659 55.5632L69.2667 55.2643ZM66.4181 52.4012C65.9113 52.0082 65.3642 51.6281 64.7754 51.2626L64.5117 51.6874C65.0865 52.0442 65.6193 52.4144 66.1117 52.7963L66.4181 52.4012ZM63.0358 50.2886C62.7336 50.1358 62.4225 49.9864 62.1024 49.8404L61.8949 50.2954C62.2091 50.4386 62.5142 50.5852 62.8103 50.7348L63.0358 50.2886ZM62.1024 49.8404C61.7809 49.6938 61.4629 49.5565 61.1482 49.4283L60.9595 49.8914C61.2677 50.0169 61.5795 50.1515 61.8949 50.2954L62.1024 49.8404ZM59.2268 48.7442C58.5491 48.5387 57.8881 48.3773 57.2438 48.2578L57.1526 48.7494C57.7779 48.8654 58.4208 49.0223 59.0818 49.2227L59.2268 48.7442ZM55.2161 48.0145C54.5078 47.9776 53.8219 47.994 53.1579 48.0603L53.2076 48.5579C53.8457 48.4942 54.5063 48.4782 55.1901 48.5138L55.2161 48.0145ZM51.1341 48.431C50.4637 48.6123 49.8196 48.8475 49.2013 49.1315L49.41 49.5859C50.0037 49.3132 50.6216 49.0875 51.2647 48.9136L51.1341 48.431ZM47.4074 50.1357C46.8407 50.5133 46.2996 50.9343 45.7834 51.3937L46.1158 51.7672C46.6157 51.3223 47.1384 50.9157 47.6846 50.5519L47.4074 50.1357ZM44.3419 52.8442C43.8957 53.3487 43.4714 53.8835 43.0684 54.4442L43.4745 54.736C43.8683 54.1879 44.2821 53.6664 44.7164 53.1755L44.3419 52.8442ZM41.9512 56.1523C41.6072 56.7292 41.2818 57.3258 40.9744 57.9385L41.4214 58.1627C41.7236 57.5601 42.0432 56.9742 42.3806 56.4084L41.9512 56.1523ZM40.1208 59.7866C39.857 60.4072 39.6096 61.0398 39.3782 61.6809L39.8485 61.8506C40.0769 61.2178 40.3209 60.5939 40.5809 59.9822L40.1208 59.7866ZM38.7369 63.6084C38.5389 64.256 38.356 64.909 38.1879 65.5641L38.6722 65.6884C38.8385 65.0403 39.0193 64.3947 39.2151 63.7546L38.7369 63.6084ZM37.7256 67.541C37.5846 68.2073 37.4583 68.8725 37.3464 69.5335L37.8394 69.6169C37.9502 68.9626 38.0752 68.304 38.2148 67.6445L37.7256 67.541ZM37.0475 71.5441C36.9601 72.2269 36.8881 72.9012 36.8311 73.5631L37.3292 73.606C37.3857 72.951 37.4569 72.2836 37.5435 71.6076L37.0475 71.5441ZM36.7008 75.5853C36.6714 76.2865 36.6597 76.9677 36.6652 77.6237L37.1652 77.6195C37.1598 76.9723 37.1713 76.2995 37.2004 75.6062L36.7008 75.5853ZM36.7419 79.6528C36.7662 80.0004 36.7962 80.3375 36.8316 80.6632L37.3287 80.6091C37.294 80.2902 37.2646 79.9594 37.2407 79.6179L36.7419 79.6528ZM36.8307 80.6521C36.851 80.9699 36.876 81.3124 36.906 81.6776L37.4044 81.6366C37.3746 81.2742 37.3497 80.9348 37.3296 80.6202L36.8307 80.6521ZM37.1036 83.7322C37.1735 84.3755 37.255 85.0613 37.3486 85.784L37.8445 85.7197C37.7513 85.0004 37.6702 84.318 37.6007 83.6782L37.1036 83.7322ZM37.6324 87.8244C37.73 88.4824 37.8367 89.1626 37.9528 89.8616L38.446 89.7796C38.3304 89.0836 38.2242 88.4062 38.127 87.7511L37.6324 87.8244ZM38.3081 91.8931C38.43 92.5564 38.5599 93.2323 38.6983 93.9185L39.1884 93.8197C39.0506 93.1364 38.9212 92.4632 38.7999 91.8028L38.3081 91.8931ZM39.124 95.9372C39.2703 96.6013 39.4243 97.2722 39.5863 97.9478L40.0725 97.8312C39.9113 97.1587 39.7579 96.4908 39.6123 95.8297L39.124 95.9372ZM40.0867 99.9481C40.2593 100.61 40.4396 101.274 40.628 101.939L41.1091 101.803C40.9217 101.141 40.7423 100.48 40.5705 99.8219L40.0867 99.9481ZM41.2129 103.918C41.4153 104.575 41.6258 105.231 41.8447 105.883L42.3187 105.724C42.1013 105.076 41.892 104.424 41.6907 103.771L41.2129 103.918ZM42.5278 107.832C42.7655 108.48 43.0118 109.124 43.2672 109.76L43.7312 109.574C43.4779 108.943 43.2333 108.304 42.9973 107.66L42.5278 107.832ZM44.0685 111.664C44.2081 111.98 44.3501 112.294 44.4946 112.605L44.9481 112.395C44.805 112.087 44.6643 111.776 44.5259 111.462L44.0685 111.664Z" fill="#838B9B"/>
<path d="M79.8193 93.374H25.5713C25.1515 93.374 24.9018 93.9005 25.1359 94.292L35.8641 112.232H92.2501L82.0119 94.7039C81.5271 93.8739 80.7029 93.374 79.8193 93.374Z" fill="#F7B66E"/>
<path d="M13.3831 42.1936C15.3589 44.5483 18.1625 45.4487 19.6451 44.2046C21.1276 42.9606 20.7278 40.0433 18.752 37.6886C16.7762 35.3339 13.9726 34.4335 12.49 35.6776C11.0074 36.9216 11.4073 39.8389 13.3831 42.1936Z" fill="#585D67"/>
<path d="M20.834 42.1524C22.8754 42.331 24.6751 40.8208 24.8537 38.7794C25.0323 36.738 23.5222 34.9383 21.4807 34.7597C19.4393 34.5811 14.7647 35.8397 14.5861 37.8811C14.4075 39.9226 18.7926 41.9738 20.834 42.1524Z" fill="white"/>
<path fill-rule="evenodd" clip-rule="evenodd" d="M24.2376 38.7255C24.0888 40.4267 22.5891 41.6851 20.8879 41.5363C19.9851 41.4573 18.468 40.9415 17.1936 40.1838C16.5615 39.8079 16.0264 39.3941 15.6673 38.9796C15.3023 38.5585 15.1783 38.2085 15.2022 37.935C15.2261 37.6615 15.4091 37.3384 15.8416 36.9871C16.2673 36.6413 16.866 36.3267 17.5538 36.0663C18.9405 35.5413 20.5241 35.2968 21.4269 35.3758C23.128 35.5246 24.3865 37.0243 24.2376 38.7255ZM24.8537 38.7794C24.6751 40.8208 22.8754 42.331 20.834 42.1524C18.7926 41.9738 14.4075 39.9226 14.5861 37.8811C14.7647 35.8397 19.4393 34.5811 21.4807 34.7597C23.5222 34.9383 25.0323 36.738 24.8537 38.7794Z" fill="#585D67"/>
<path d="M10.1491 44.2685C9.97052 46.3099 11.4806 48.1096 13.5221 48.2882C15.5635 48.4668 17.3632 46.9566 17.5418 44.9152C17.7204 42.8738 16.4618 38.1992 14.4203 38.0206C12.3789 37.842 10.3277 42.227 10.1491 44.2685Z" fill="white"/>
<path fill-rule="evenodd" clip-rule="evenodd" d="M13.576 47.6721C11.8748 47.5233 10.6163 46.0235 10.7652 44.3224C10.8442 43.4196 11.3599 41.9025 12.1177 40.6281C12.4936 39.9959 12.9074 39.4609 13.3219 39.1017C13.7429 38.7368 14.0929 38.6127 14.3665 38.6367C14.64 38.6606 14.9631 38.8436 15.3144 39.2761C15.6602 39.7018 15.9748 40.3005 16.2352 40.9883C16.7602 42.3749 17.0047 43.9586 16.9257 44.8613C16.7769 46.5625 15.2771 47.8209 13.576 47.6721ZM13.5221 48.2882C11.4806 48.1096 9.97052 46.3099 10.1491 44.2685C10.3277 42.227 12.3789 37.842 14.4203 38.0206C16.4618 38.1992 17.7204 42.8738 17.5418 44.9152C17.3632 46.9566 15.5635 48.4668 13.5221 48.2882Z" fill="#585D67"/>
<path d="M104.799 71.7429C102.823 74.0975 102.424 77.0149 103.906 78.2589C105.389 79.5029 108.192 78.6026 110.168 76.2479C112.144 73.8932 112.544 70.9759 111.061 69.7319C109.579 68.4878 106.775 69.3882 104.799 71.7429Z" fill="#585D67"/>
<path d="M106.133 79.0737C106.312 81.1151 108.112 82.6252 110.153 82.4466C112.194 82.268 113.704 80.4683 113.526 78.4269C113.347 76.3855 111.296 72.0005 109.255 72.1791C107.213 72.3577 105.955 77.0323 106.133 79.0737Z" fill="white"/>
<path fill-rule="evenodd" clip-rule="evenodd" d="M110.099 81.8305C108.398 81.9794 106.898 80.7209 106.749 79.0198C106.67 78.1171 106.915 76.5334 107.44 75.1468C107.7 74.459 108.015 73.8602 108.361 73.4345C108.712 73.002 109.035 72.8191 109.309 72.7951C109.582 72.7712 109.932 72.8953 110.353 73.2602C110.768 73.6194 111.181 74.1544 111.557 74.7866C112.315 76.0609 112.831 77.5781 112.91 78.4808C113.059 80.182 111.8 81.6817 110.099 81.8305ZM110.153 82.4466C108.112 82.6252 106.312 81.1151 106.133 79.0737C105.955 77.0323 107.213 72.3577 109.255 72.1791C111.296 72.0005 113.347 76.3855 113.526 78.4269C113.704 80.4683 112.194 82.268 110.153 82.4466Z" fill="#585D67"/>
<path d="M102.194 68.9189C100.152 69.0975 98.6423 70.8972 98.8209 72.9386C98.9995 74.98 100.799 76.4901 102.841 76.3115C104.882 76.1329 109.267 74.0817 109.088 72.0403C108.91 69.9989 104.235 68.7403 102.194 68.9189Z" fill="white"/>
<path fill-rule="evenodd" clip-rule="evenodd" d="M99.437 72.8847C99.2882 71.1835 100.547 69.6838 102.248 69.5349C103.15 69.456 104.734 69.7005 106.121 70.2254C106.809 70.4858 107.407 70.8005 107.833 71.1462C108.265 71.4975 108.448 71.8207 108.472 72.0942C108.496 72.3677 108.372 72.7177 108.007 73.1387C107.648 73.5532 107.113 73.967 106.481 74.3429C105.207 75.1007 103.689 75.6165 102.787 75.6954C101.086 75.8443 99.5858 74.5858 99.437 72.8847ZM98.8209 72.9386C98.6423 70.8972 100.152 69.0975 102.194 68.9189C104.235 68.7403 108.91 69.9989 109.088 72.0403C109.267 74.0817 104.882 76.1329 102.841 76.3115C100.799 76.4901 98.9995 74.98 98.8209 72.9386Z" fill="#585D67"/>
<defs>
<filter id="filter0_f_307_229" x="90.2499" y="111.41" width="22.8828" height="26.9832" filterUnits="userSpaceOnUse" color-interpolation-filters="sRGB">
<feFlood flood-opacity="0" result="BackgroundImageFix"/>
<feBlend mode="normal" in="SourceGraphic" in2="BackgroundImageFix" result="shape"/>
<feGaussianBlur stdDeviation="1" result="effect1_foregroundBlur_307_229"/>
</filter>
<linearGradient id="paint0_linear_307_229" x1="101.691" y1="113.41" x2="101.691" y2="136.393" gradientUnits="userSpaceOnUse">
<stop stop-color="#A0564A"/>
<stop offset="1" stop-color="#A0564A" stop-opacity="0"/>
</linearGradient>
</defs>
</svg>
